<?xml version="1.0" encoding="UTF-8" standalone="no"?>
<svg width="19px" height="19px" viewBox="0 0 19 19" version="1.1" xmlns="http://www.w3.org/2000/svg" xmlns:xlink="http://www.w3.org/1999/xlink">
    <!-- Generator: Sketch 39.1 (31720) - http://www.bohemiancoding.com/sketch -->
    <title>cross</title>
    <desc>Created with Sketch.</desc>
    <defs></defs>
    <g id="Page-1" stroke="none" stroke-width="1" fill="none" fill-rule="evenodd" opacity="0.2">
        <path d="M18.4338153,14.8339456 C18.4338153,14.4460286 18.2786485,14.0581116 17.9993482,13.7788114 L13.4374445,9.21690764 L17.9993482,4.65500386 C18.2786485,4.37570363 18.4338153,3.98778664 18.4338153,3.59986965 C18.4338153,3.21195266 18.2786485,2.82403567 17.9993482,2.54473544 L15.8890798,0.434467027 C15.6097796,0.155166795 15.2218626,0 14.8339456,0 C14.4460286,0 14.0581116,0.155166795 13.7788114,0.434467027 L9.21690764,4.99637081 L4.65500386,0.434467027 C4.37570363,0.155166795 3.98778664,0 3.59986965,0 C3.21195266,0 2.82403567,0.155166795 2.54473544,0.434467027 L0.434467027,2.54473544 C0.155166795,2.82403567 0,3.21195266 0,3.59986965 C0,3.98778664 0.155166795,4.37570363 0.434467027,4.65500386 L4.99637081,9.21690764 L0.434467027,13.7788114 C0.155166795,14.0581116 0,14.4460286 0,14.8339456 C0,15.2218626 0.155166795,15.6097796 0.434467027,15.8890798 L2.54473544,17.9993482 C2.82403567,18.2786485 3.21195266,18.4338153 3.59986965,18.4338153 C3.98778664,18.4338153 4.37570363,18.2786485 4.65500386,17.9993482 L9.21690764,13.4374445 L13.7788114,17.9993482 C14.0581116,18.2786485 14.4460286,18.4338153 14.8339456,18.4338153 C15.2218626,18.4338153 15.6097796,18.2786485 15.8890798,17.9993482 L17.9993482,15.8890798 C18.2786485,15.6097796 18.4338153,15.2218626 18.4338153,14.8339456 L18.4338153,14.8339456 Z" id="cross" fill="#000000"></path>
    </g>
</svg>